<?xml version="1.0" standalone="no"?>
<!DOCTYPE svg PUBLIC "-//W3C//DTD SVG 20010904//EN"
 "http://www.w3.org/TR/2001/REC-SVG-20010904/DTD/svg10.dtd">
<svg version="1.0" xmlns="http://www.w3.org/2000/svg"
 width="480.000000pt" height="480.000000pt" viewBox="0 0 480.000000 480.000000"
 preserveAspectRatio="xMidYMid meet">
<metadata>
Created by potrace 1.14, written by Peter Selinger 2001-2017
</metadata>
<g transform="translate(0.000000,480.000000) scale(0.100000,-0.100000)"
fill="#000000" stroke="none">
<path d="M3810 4747 l0 -44 -76 1 c-42 1 -78 -2 -81 -7 -2 -4 -5 -21 -5 -37
-1 -17 -4 -33 -8 -35 -15 -9 -60 -13 -60 -5 0 5 -6 7 -14 4 -8 -3 -30 -6 -48
-7 -30 -2 -33 -5 -35 -36 -2 -38 -15 -50 -50 -46 -28 3 -42 -18 -37 -57 3 -30
-7 -33 -93 -28 -50 2 -74 -9 -72 -33 4 -53 1 -57 -41 -57 -34 0 -40 -3 -41
-22 -3 -66 1 -63 -69 -64 -101 -2 -98 -1 -94 -32 5 -42 -8 -54 -52 -50 -38 3
-39 4 -36 39 4 43 0 45 -93 44 l-70 -1 0 -39 c0 -39 -1 -40 -38 -40 -20 0 -38
-4 -38 -10 -1 -5 -3 -23 -4 -40 -2 -16 -3 -32 -4 -35 -1 -3 -19 -5 -41 -5 -29
0 -40 4 -41 15 0 8 -1 104 -1 213 -1 108 -5 197 -9 198 -5 1 -40 2 -79 3 l-70
1 0 -42 c0 -40 -2 -43 -27 -44 -57 -3 -58 -3 -59 -36 -1 -18 -2 -37 -3 -43 0
-5 -21 -10 -46 -10 -40 0 -45 -2 -38 -17 5 -10 8 -29 8 -43 0 -22 -5 -25 -35
-25 -49 -1 -58 -9 -53 -50 3 -35 3 -35 -37 -35 -37 0 -40 -2 -41 -27 -1 -16
-1 -34 0 -40 2 -15 6 -14 -91 -17 -65 -2 -78 0 -79 13 -1 9 -3 23 -4 31 -1 8
-3 22 -4 30 -1 10 -12 15 -38 15 -37 0 -38 1 -38 35 0 19 -3 38 -8 41 -6 4
-72 5 -138 0 -14 -1 -16 -14 -15 -77 0 -42 -3 -79 -9 -82 -16 -11 -74 -9 -78
3 -2 5 -3 25 -1 43 1 26 -2 32 -20 33 -61 3 -61 3 -66 44 l-5 40 -65 -1 c-36
-1 -71 -2 -77 -3 -10 -1 -13 -32 -12 -120 1 -65 -1 -123 -4 -128 -3 -5 -18 -8
-34 -7 -15 1 -52 3 -81 3 l-53 1 3 35 c1 19 -1 38 -6 42 -4 4 -78 8 -164 8
l-157 0 -3 43 -3 42 -72 1 c-40 0 -93 0 -119 -1 -33 -1 -48 3 -50 12 0 7 -2
22 -3 33 -1 11 -3 25 -4 30 0 6 -34 10 -78 10 l-78 0 -1 -30 c-2 -51 -4 -56
-16 -54 -7 1 -26 1 -41 0 l-28 -1 3 -82 3 -83 33 -1 c17 -1 36 -2 42 -3 5 0 9
-18 7 -38 -2 -38 -2 -38 39 -41 l42 -3 -3 -80 c-2 -73 -1 -81 18 -88 12 -4 31
-7 45 -5 20 2 23 -2 22 -24 -4 -55 -1 -61 27 -60 51 1 53 -1 53 -42 0 -42 7
-46 62 -41 21 3 20 7 22 -94 l1 -80 38 1 c20 1 38 -2 38 -7 1 -5 3 -13 4 -19
1 -5 3 -22 4 -36 1 -24 4 -26 36 -22 19 2 36 2 37 -2 0 -3 2 -34 4 -70 1 -36
3 -73 3 -82 1 -14 10 -18 41 -18 42 0 40 3 43 -66 1 -26 -1 -26 -56 -26 -31 0
-88 1 -127 1 l-70 1 0 33 c0 17 -4 37 -8 42 -10 14 -92 15 -92 1 0 -7 -3 -8
-8 -1 -4 6 -18 11 -32 10 -21 0 -25 5 -26 33 -1 17 -2 36 -3 41 0 5 -18 9 -38
8 -38 -2 -38 -2 -43 43 -3 28 -10 45 -17 44 -7 -1 -24 -2 -37 -3 -20 -1 -23
-6 -22 -38 1 -36 -1 -38 -34 -43 -19 -3 -58 -3 -86 -2 l-52 4 3 36 c3 41 -10
51 -55 44 -25 -4 -28 -8 -27 -41 2 -35 1 -36 -38 -41 l-40 -5 -1 -77 c0 -43 2
-79 5 -79 3 -1 16 -3 28 -4 47 -5 50 -10 49 -88 -1 -42 -4 -79 -9 -83 -4 -4
-22 -8 -40 -8 -30 -1 -32 -3 -32 -41 0 -40 0 -40 -42 -43 -42 -3 -43 -4 -43
-38 0 -31 8 -39 33 -35 4 0 7 -3 7 -7 0 -5 10 -8 22 -8 19 1 22 -4 22 -39 l0
-40 80 0 81 0 2 -30 c0 -16 2 -36 2 -42 1 -8 16 -13 41 -13 37 0 40 -2 41 -27
1 -16 1 -35 0 -44 -1 -13 6 -16 31 -14 43 4 57 -9 54 -50 -2 -25 1 -35 15 -38
11 -3 22 -1 25 4 3 5 14 5 25 -2 15 -7 19 -18 16 -38 -6 -39 2 -48 43 -48 34
1 35 -1 38 -41 l3 -41 82 -3 82 -3 -1 -38 c0 -31 4 -39 23 -43 13 -4 30 -4 38
0 18 6 17 10 20 -84 2 -41 3 -78 4 -82 1 -5 19 -8 42 -8 22 0 38 -4 34 -9 -3
-5 -1 -12 5 -16 7 -4 7 -12 0 -26 -8 -13 -7 -19 0 -19 6 0 8 -4 5 -10 -9 -14
-12 -90 -4 -90 4 0 3 -15 -1 -34 -9 -43 -3 -53 38 -53 17 -1 35 -2 40 -2 4 -1
7 -38 7 -83 l0 -83 35 -2 c19 0 38 -2 42 -2 4 -1 7 -34 6 -74 -1 -101 -3 -97
41 -97 l38 0 -1 -127 -1 -128 -38 -3 c-30 -3 -37 -7 -38 -25 -1 -33 -1 -279 0
-300 1 -14 8 -18 28 -17 50 4 51 3 50 -74 -1 -56 3 -77 16 -90 9 -10 17 -13
17 -8 0 6 8 9 18 7 9 -2 20 -4 25 -4 4 -1 7 -21 7 -46 l0 -45 -40 0 c-31 0
-40 -4 -41 -17 -1 -20 -1 -122 0 -140 1 -6 13 -10 28 -8 43 4 53 -4 53 -47 0
-31 3 -39 17 -37 10 1 23 0 28 -1 19 -4 137 0 145 5 5 3 11 2 13 -2 4 -7 73
-7 122 -2 6 1 15 0 20 -1 6 -1 23 -2 38 -1 24 1 27 4 24 29 -8 53 2 58 115 56
134 -2 137 -2 135 44 -2 37 -2 37 41 40 l42 3 0 85 c0 90 -1 88 57 86 19 -1
22 5 25 41 3 42 3 42 43 42 27 0 39 -4 38 -13 -2 -6 1 -12 7 -12 6 0 6 -9 0
-25 -9 -24 -4 -30 23 -26 4 0 7 -4 7 -10 0 -5 5 -7 12 -3 16 10 418 11 418 1
0 -5 6 -5 13 0 6 4 31 7 55 5 l42 -2 0 43 0 43 48 -2 c57 -1 55 0 44 -21 -16
-30 2 -58 39 -61 41 -3 42 -5 41 -42 -1 -34 9 -43 52 -44 28 -1 31 -4 33 -36
0 -19 2 -38 2 -42 1 -5 19 -8 41 -8 l40 0 0 -44 0 -43 38 1 37 1 3 -80 c2 -44
8 -82 13 -86 6 -3 24 -5 40 -4 16 1 29 -3 30 -9 0 -6 2 -24 2 -41 l2 -30 121
-3 122 -3 1 -27 c1 -15 2 -35 2 -44 0 -16 13 -18 120 -18 88 0 119 3 120 13 1
6 2 26 3 42 l1 30 83 3 82 3 0 169 0 170 40 0 40 0 0 68 c1 37 1 148 1 247 -1
99 3 185 7 190 4 6 41 11 82 10 l75 0 0 38 c0 44 4 45 104 49 l64 3 1 40 c1
38 3 40 31 40 43 0 52 9 50 49 -2 30 1 36 19 37 61 3 61 3 64 42 2 20 6 38 10
38 4 1 21 2 37 3 l30 2 3 82 c2 61 0 82 -10 83 -7 1 -25 1 -40 1 -26 1 -28 4
-28 39 0 47 -3 47 -142 45 l-108 -1 -1 30 c-1 16 -1 36 0 43 2 13 -8 15 -51
12 -16 -1 -28 2 -29 7 -4 36 -3 757 1 763 3 4 16 8 30 8 43 0 51 2 45 11 -3 5
-2 12 3 15 5 3 7 18 4 34 -4 27 -2 28 37 26 l41 -1 0 43 0 43 42 3 c43 3 43 3
43 43 0 38 2 40 30 41 54 2 55 3 55 44 l0 40 40 0 40 0 0 85 0 85 28 1 c15 1
33 1 40 0 7 -1 12 10 13 26 3 63 -2 58 64 62 19 1 21 7 20 86 l-1 85 43 0 44
0 -3 82 -3 82 -120 1 -120 0 -5 85 -5 85 -30 2 c-46 4 -52 9 -49 47 3 36 3 36
-36 36 -39 0 -39 0 -42 -42 -3 -42 -3 -42 -43 -43 l-40 0 1 -42 1 -43 -82 0
-83 0 0 -36 c0 -19 -3 -38 -7 -42 -4 -4 -39 -7 -78 -7 l-72 0 -3 -42 -3 -42
-110 -3 c-60 -2 -109 1 -109 6 0 5 -7 3 -15 -4 -12 -10 -15 -7 -20 12 -4 13
-5 28 -4 34 6 31 -3 39 -38 39 l-38 0 0 45 c0 44 1 45 32 46 18 0 36 3 39 7 4
4 8 80 8 169 l1 163 35 0 c19 0 38 5 41 10 4 6 6 82 6 170 l-1 160 42 3 41 3
3 127 3 127 33 2 c19 1 36 3 38 6 3 2 6 77 7 166 2 173 4 166 -50 162 -27 -3
-38 15 -34 56 2 32 2 33 -38 33 l-41 0 0 -43z"/>
</g>
</svg>
